<svg xmlns="http://www.w3.org/2000/svg" width="930.285" height="766.266" viewBox="0 0 930.285 766.266">
  <g id="Group_10" data-name="Group 10" transform="translate(-896.034 -110.065)">
    <g id="note_book" data-name="note book" transform="translate(1562.181 582.669) rotate(30)">
      <rect id="Rectangle_3" data-name="Rectangle 3" width="305" height="163" fill="#575a89"/>
      <rect id="Rectangle_4" data-name="Rectangle 4" width="131" height="143" transform="translate(13 11)" fill="#fff"/>
      <rect id="Rectangle_5" data-name="Rectangle 5" width="131" height="143" transform="translate(291 154) rotate(180)" fill="#fff"/>
      <rect id="Rectangle_6" data-name="Rectangle 6" width="103" height="5" transform="translate(24 28)" fill="#1bb1dc" opacity="0.2"/>
      <rect id="Rectangle_7" data-name="Rectangle 7" width="103" height="3" transform="translate(24 43)" fill="#1bb1dc" opacity="0.2"/>
      <rect id="Rectangle_8" data-name="Rectangle 8" width="103" height="3" transform="translate(24 57)" fill="#1bb1dc" opacity="0.2"/>
      <rect id="Rectangle_9" data-name="Rectangle 9" width="104" height="5" transform="translate(171 28)" fill="#1bb1dc" opacity="0.2"/>
      <rect id="Rectangle_10" data-name="Rectangle 10" width="104" height="3" transform="translate(171 43)" fill="#1bb1dc" opacity="0.2"/>
      <rect id="Rectangle_11" data-name="Rectangle 11" width="104" height="3" transform="translate(171 57)" fill="#1bb1dc" opacity="0.2"/>
      <rect id="Rectangle_12" data-name="Rectangle 12" width="103" height="3" transform="translate(24 70)" fill="#1bb1dc" opacity="0.2"/>
      <rect id="Rectangle_13" data-name="Rectangle 13" width="103" height="4" transform="translate(24 84)" fill="#1bb1dc" opacity="0.2"/>
      <rect id="Rectangle_14" data-name="Rectangle 14" width="103" height="3" transform="translate(24 99)" fill="#1bb1dc" opacity="0.2"/>
      <rect id="Rectangle_15" data-name="Rectangle 15" width="103" height="3" transform="translate(24 112)" fill="#1bb1dc" opacity="0.2"/>
      <rect id="Rectangle_16" data-name="Rectangle 16" width="103" height="3" transform="translate(24 126)" fill="#1bb1dc" opacity="0.2"/>
    </g>
    <g id="camera" transform="translate(855.706 104.764)">
      <path id="Path_33" data-name="Path 33" d="M643.964,119.274,599.7,149.527h64.939Z" transform="translate(-391.602 -83.645)" fill="#f2f2f2"/>
      <path id="Path_34" data-name="Path 34" d="M621.854,212.022H549.413l-22.084,15.1H632.172Z" transform="translate(-345.357 -142.907)" fill="#f2f2f2"/>
      <path id="Path_35" data-name="Path 35" d="M396.165,262.08l-70,47.845,49.86,72.945,145.038-99.138-14.8-21.652Z" transform="translate(-216.822 -174.893)" fill="#f2f2f2"/>
      <ellipse id="Ellipse_7" data-name="Ellipse 7" cx="146.219" cy="7.221" rx="146.219" ry="7.221" transform="translate(40.328 213.794)" fill="#f2f2f2"/>
      <ellipse id="Ellipse_9" data-name="Ellipse 9" cx="4.98" cy="2.883" rx="4.98" ry="2.883" transform="translate(102.206 114.497)" fill="#3f3d56"/>
      <path id="Path_36" data-name="Path 36" d="M484.558,345.7H372.638l2.752-9.908,2.38-8.571,4.042-14.547h93.835l3.926,14.547,2.687,9.96Z" transform="translate(-246.515 -207.222)" fill="#3f3d56"/>
      <path id="Path_37" data-name="Path 37" d="M487.13,362.929H380.261V361.54l2.38-8.571h101.8Z" transform="translate(-251.385 -232.967)" opacity="0.1"/>
      <rect id="Rectangle_17" data-name="Rectangle 17" width="14.547" height="11.271" transform="translate(99.913 116.463)" fill="#1bb1dc"/>
      <rect id="Rectangle_18" data-name="Rectangle 18" width="185.572" height="99.077" transform="translate(89.429 121.967)" fill="#3f3d56"/>
      <rect id="Rectangle_19" data-name="Rectangle 19" width="185.572" height="24.638" transform="translate(89.429 159.187)" fill="#1bb1dc"/>
      <circle id="Ellipse_10" data-name="Ellipse 10" cx="46" cy="46" r="46" transform="translate(136.215 125.506)" fill="#2f2e41"/>
      <circle id="Ellipse_11" data-name="Ellipse 11" cx="42.724" cy="42.724" r="42.724" transform="translate(139.491 128.782)" fill="#3f3d56"/>
      <circle id="Ellipse_12" data-name="Ellipse 12" cx="32.501" cy="32.501" r="32.501" transform="translate(149.713 139.004)" fill="#2f2e41"/>
      <circle id="Ellipse_13" data-name="Ellipse 13" cx="3.145" cy="3.145" r="3.145" transform="translate(243.286 125.637)" fill="#1bb1dc" opacity="0.2"/>
      <circle id="Ellipse_14" data-name="Ellipse 14" cx="3.145" cy="3.145" r="3.145" transform="translate(252.722 125.637)" fill="#1bb1dc" opacity="0.5"/>
      <circle id="Ellipse_15" data-name="Ellipse 15" cx="3.145" cy="3.145" r="3.145" transform="translate(262.158 125.637)" fill="#1bb1dc"/>
      <rect id="Rectangle_20" data-name="Rectangle 20" width="22.017" height="9.96" transform="translate(171.075 107.813)" fill="#2f2e41"/>
      <circle id="Ellipse_18" data-name="Ellipse 18" cx="3.971" cy="3.971" r="3.971" transform="translate(189.074 92.125)" fill="none" stroke="#3f3d56" stroke-miterlimit="10" stroke-width="2"/>
      <circle id="Ellipse_19" data-name="Ellipse 19" cx="3.971" cy="3.971" r="3.971" transform="translate(176.799 76.962)" fill="none" stroke="#3f3d56" stroke-miterlimit="10" stroke-width="2"/>
      <circle id="Ellipse_20" data-name="Ellipse 20" cx="3.971" cy="3.971" r="3.971" transform="translate(197.017 65.409)" fill="none" stroke="#3f3d56" stroke-miterlimit="10" stroke-width="2"/>
    </g>
    <g id="mobile_phone" data-name="mobile phone" transform="translate(1283.493 110.085)">
      <path id="Path_50" data-name="Path 50" d="M63.3,476c8.586,36.7,26.761,68.419,55.486,83.8,59.7,31.954,194.323,15.475,294.8-3.462a230.081,230.081,0,0,0,130.835-74.795Z" transform="translate(-57.444 -263.368)" fill="#1bb1dc" opacity="0.1"/>
      <path id="Path_51" data-name="Path 51" d="M604.382,85.957h-55.13a4.765,4.765,0,1,1,0-9.53h9.531a4.765,4.765,0,1,1,0-9.53h-6.805a4.765,4.765,0,1,1,0-9.53h28.774a76.142,76.142,0,0,0-22.444-6.187C479.849,41.1,451.836,47.766,441.954,54.641a109.876,109.876,0,0,1-40.328,17.676c-48.409,9.985-138.941,22-221-3.848-40.783-12.859-71.1,8.863-89.261,45.145H613.952c-.683-10.544-2.725-20.278-6.474-28.8a4.738,4.738,0,0,1-3.1,1.147Z" transform="translate(-71.632 -46.05)" fill="#1bb1dc" opacity="0.1"/>
      <path id="Path_52" data-name="Path 52" d="M52.627,321.15a242.866,242.866,0,0,0,2.137,64.023l484.03,17.7a227.51,227.51,0,0,0,33.631-51.287Zm191.44,45.674h-9.53a4.765,4.765,0,1,1,0,9.53h-55.13a4.765,4.765,0,1,1,0-9.53h9.53a4.765,4.765,0,0,1,0-9.531h-6.805a4.765,4.765,0,1,1,0-9.53h55.13a4.765,4.765,0,1,1,0,9.53h6.805a4.765,4.765,0,0,1,0,9.531Z" transform="translate(-51.45 -185.102)" fill="#1bb1dc" opacity="0.1"/>
      <path id="Path_53" data-name="Path 53" d="M595.089,183.34,66.641,196.2A211.042,211.042,0,0,0,54,250.765H585.831a225.759,225.759,0,0,0,7.681-34.783A164.834,164.834,0,0,0,595.089,183.34ZM161.283,225.458h-9.53a4.765,4.765,0,1,1,0,9.53H96.622a4.765,4.765,0,0,1,0-9.53h9.53a4.765,4.765,0,0,1,0-9.53H99.348a4.765,4.765,0,0,1,0-9.53h55.13a4.765,4.765,0,1,1,0,9.53h6.805a4.765,4.765,0,0,1,0,9.53Z" transform="translate(-52.744 -115.45)" fill="#1bb1dc" opacity="0.1"/>
      <g id="Group_1" data-name="Group 1" transform="translate(331.786 199.725)" opacity="0.1">
        <path id="Path_54" data-name="Path 54" d="M729,579.45s13.947-34.373,39.991-47.123a56.208,56.208,0,0,0,25.525-24.753,94.528,94.528,0,0,0,6.395-16.074" transform="translate(-725.692 -470.926)" fill="none" stroke="#535461" stroke-miterlimit="10" stroke-width="2"/>
        <path id="Path_55" data-name="Path 55" d="M890.356,462.339c-2.715,3.413-16.766,8.408-16.766,8.408s1.691-14.837,4.407-18.225a7.913,7.913,0,0,1,12.364,9.832Z" transform="translate(-798.772 -449.901)" fill="#1bb1dc"/>
        <path id="Path_56" data-name="Path 56" d="M878.7,514.139c-4.135,1.39-18.635-2.067-18.635-2.067s9.471-11.514,13.606-12.9a7.913,7.913,0,0,1,5.03,14.971Z" transform="translate(-791.934 -474.667)" fill="#1bb1dc"/>
        <path id="Path_57" data-name="Path 57" d="M829.505,578.4c-4.268-.885-15.045-11.192-15.045-11.192s13.987-5.158,18.26-4.273a7.913,7.913,0,0,1-3.215,15.46Z" transform="translate(-768.886 -506.98)" fill="#1bb1dc"/>
        <path id="Path_58" data-name="Path 58" d="M776.792,618.058c-4.357-.153-16.721-8.487-16.721-8.487s12.918-7.433,17.275-7.295a7.913,7.913,0,1,1-.554,15.782Z" transform="translate(-741.396 -526.913)" fill="#1bb1dc"/>
        <path id="Path_59" data-name="Path 59" d="M832.744,497.405c.559,4.328,10,15.861,10,15.861s6.217-13.551,5.663-17.879a7.913,7.913,0,0,0-15.663,2.018Z" transform="translate(-778.119 -469.66)" fill="#1bb1dc"/>
        <path id="Path_60" data-name="Path 60" d="M772.724,541.457c1.825,3.957,14.288,12.142,14.288,12.142s1.879-14.793.054-18.749a7.913,7.913,0,1,0-14.343,6.612Z" transform="translate(-747.309 -490.274)" fill="#1bb1dc"/>
        <path id="Path_61" data-name="Path 61" d="M722.464,597.669c1.128,4.214,12.033,14.382,12.033,14.382s4.352-14.259,3.22-18.472a7.913,7.913,0,0,0-15.253,4.09Z" transform="translate(-722.312 -519.809)" fill="#1bb1dc"/>
        <path id="Path_62" data-name="Path 62" d="M890.356,462.339c-2.715,3.413-16.766,8.408-16.766,8.408s1.691-14.837,4.407-18.225a7.913,7.913,0,0,1,12.364,9.832Z" transform="translate(-798.772 -449.901)" opacity="0.25"/>
        <path id="Path_63" data-name="Path 63" d="M878.7,514.139c-4.135,1.39-18.635-2.067-18.635-2.067s9.471-11.514,13.606-12.9a7.913,7.913,0,0,1,5.03,14.971Z" transform="translate(-791.934 -474.667)" opacity="0.25"/>
        <path id="Path_64" data-name="Path 64" d="M829.505,578.4c-4.268-.885-15.045-11.192-15.045-11.192s13.987-5.158,18.26-4.273a7.913,7.913,0,0,1-3.215,15.46Z" transform="translate(-768.886 -506.98)" opacity="0.25"/>
        <path id="Path_65" data-name="Path 65" d="M776.792,618.058c-4.357-.153-16.721-8.487-16.721-8.487s12.918-7.433,17.275-7.295a7.913,7.913,0,1,1-.554,15.782Z" transform="translate(-741.396 -526.913)" opacity="0.25"/>
        <path id="Path_66" data-name="Path 66" d="M832.744,497.405c.559,4.328,10,15.861,10,15.861s6.217-13.551,5.663-17.879a7.913,7.913,0,0,0-15.663,2.018Z" transform="translate(-778.119 -469.66)" opacity="0.25"/>
        <path id="Path_67" data-name="Path 67" d="M772.724,541.457c1.825,3.957,14.288,12.142,14.288,12.142s1.879-14.793.054-18.749a7.913,7.913,0,1,0-14.343,6.612Z" transform="translate(-747.309 -490.274)" opacity="0.25"/>
        <path id="Path_68" data-name="Path 68" d="M722.464,597.669c1.128,4.214,12.033,14.382,12.033,14.382s4.352-14.259,3.22-18.472a7.913,7.913,0,0,0-15.253,4.09Z" transform="translate(-722.312 -519.809)" opacity="0.25"/>
      </g>
      <g id="Group_2" data-name="Group 2" transform="translate(310.991 127.05)" opacity="0.1">
        <path id="Path_69" data-name="Path 69" d="M709,458.548s1.761-37.054,22.1-57.722A56.208,56.208,0,0,0,746.929,369a94.513,94.513,0,0,0,.707-17.271" transform="translate(-694.789 -327.608)" fill="none" stroke="#535461" stroke-miterlimit="10" stroke-width="2"/>
        <path id="Path_70" data-name="Path 70" d="M797.391,313.978c-1.429,4.12-13.032,13.482-13.032,13.482s-3.314-14.536-1.884-18.655a7.913,7.913,0,1,1,14.917,5.173Z" transform="translate(-731.743 -302.957)" fill="#1bb1dc"/>
        <path id="Path_71" data-name="Path 71" d="M803.21,365.23c-3.462,2.681-18.27,4.234-18.27,4.234s5.119-14.006,8.556-16.687a7.913,7.913,0,1,1,9.713,12.453Z" transform="translate(-733.171 -327.126)" fill="#1bb1dc"/>
        <path id="Path_72" data-name="Path 72" d="M775.134,442.365c-4.323.579-17.9-5.569-17.9-5.569s11.489-9.506,15.826-10.084a7.913,7.913,0,1,1,2.1,15.653Z" transform="translate(-719.165 -365.427)" fill="#1bb1dc"/>
        <path id="Path_73" data-name="Path 73" d="M739.541,497.4c-4.164,1.3-18.591-2.473-18.591-2.473s9.714-11.311,13.878-12.612a7.913,7.913,0,0,1,4.713,15.075Z" transform="translate(-700.828 -393.496)" fill="#1bb1dc"/>
        <path id="Path_74" data-name="Path 74" d="M752.062,367.963c1.978,3.9,14.7,11.647,14.7,11.647s1.37-14.837-.589-18.744a7.913,7.913,0,0,0-14.11,7.1Z" transform="translate(-716.233 -330.246)" fill="#1bb1dc"/>
        <path id="Path_75" data-name="Path 75" d="M710.772,430.185c3.037,3.131,17.508,6.716,17.508,6.716s-3.131-14.575-6.167-17.706a7.913,7.913,0,0,0-11.341,10.994Z" transform="translate(-694.725 -360.666)" fill="#1bb1dc"/>
        <path id="Path_76" data-name="Path 76" d="M681.326,499.186c2.473,3.6,16.123,9.58,16.123,9.58s-.623-14.9-3.086-18.5a7.913,7.913,0,0,0-13.032,8.9Z" transform="translate(-680.265 -396.125)" fill="#1bb1dc"/>
      </g>
      <path id="Path_77" data-name="Path 77" d="M351.19,801.336c19.447,6.538,43.171,2.562,65.234,3.022,3.022.064,6.217.252,8.64,1.38s3.615,2.967,5.277,4.525c6.182,5.831,18.848,7.706,29.922,6.716s21.227-4.263,31.653-6.756c18.062-4.313,38.71-6.271,56.525-1.573a14.719,14.719,0,0,0,5.109.757c3.907-.386,5.069-3.511,7.8-5.3,4.946-3.225,15.643-2.349,17.8-6.6,1.271-2.473-1.652-5.045-4.832-6.746-12.176-6.509-29.6-7.582-45.531-6.578s-31.6,3.773-47.623,3.783c-19.956,0-39.239-4.248-59-5.989-13.69-1.207-28.631-1.058-41.465,2.473C366.828,788.323,363.762,796.949,351.19,801.336Z" transform="translate(-202.951 -417.674)" fill="#1bb1dc" opacity="0.1"/>
      <rect id="Rectangle_25" data-name="Rectangle 25" width="3.462" height="48.963" transform="translate(180.767 91.437)" fill="#535461"/>
      <rect id="Rectangle_26" data-name="Rectangle 26" width="3.462" height="27.696" transform="translate(180.767 157.215)" fill="#535461"/>
      <rect id="Rectangle_27" data-name="Rectangle 27" width="155.791" height="338.289" rx="47.1" transform="translate(183.24 43.463)" fill="#535461"/>
      <rect id="Rectangle_28" data-name="Rectangle 28" width="155.791" height="308.12" rx="47.1" transform="translate(183.24 59.29)" fill="#1bb1dc"/>
      <rect id="Rectangle_29" data-name="Rectangle 29" width="25.718" height="3.462" rx="1.731" transform="translate(248.524 50.882)" fill="#eaeaf3"/>
      <circle id="Ellipse_22" data-name="Ellipse 22" cx="2.473" cy="2.473" r="2.473" transform="translate(280.671 50.387)" fill="#eaeaf3"/>
      <path id="Path_78" data-name="Path 78" d="M479.4,387.191v36.1a8.541,8.541,0,0,1-8.571,8.635c-4.768,0-9.4-3.863-9.4-8.635v-36.1c0-4.708,4.614-8.571,9.4-8.571A8.606,8.606,0,0,1,479.4,387.191Zm3.368,48.933a9.2,9.2,0,0,0,9.224,9.224h6.2l.094,19.046c0,11.5,17.206,11.41,17.206,0V445.353h11.593V464.4c0,11.44,17.31,11.469,17.31,0V445.353h6.3a9.194,9.194,0,0,0,9.165-9.224V380.193H482.766Zm77.3-58.938H482.415c0-13.354,7.978-24.937,19.823-30.98l-5.935-11c-.87-1.528,1.34-2.473,2.087-1.182l6.049,11.1a42.108,42.108,0,0,1,33.755,0l6.014-11.064a1.2,1.2,0,1,1,2.087,1.182l-5.935,10.97C552.086,352.25,560.063,363.848,560.063,377.186Zm-53.206-17.31a3.254,3.254,0,1,0,0,.01Zm35.347,0a3.25,3.25,0,1,0,0,.01Zm29.546,18.734a8.546,8.546,0,0,0-8.571,8.571v36.1a8.6,8.6,0,0,0,8.571,8.635c4.8,0,9.4-3.863,9.4-8.635v-36.1c-.015-4.787-4.629-8.561-9.4-8.561Z" transform="translate(-258.669 -191.3)" fill="#fff"/>
      <rect id="Rectangle_30" data-name="Rectangle 30" width="32.147" height="1.484" transform="translate(224.537 281.631)" fill="#535461"/>
      <rect id="Rectangle_31" data-name="Rectangle 31" width="21.267" height="1.484" transform="translate(268.554 281.631)" fill="#535461"/>
      <rect id="Rectangle_32" data-name="Rectangle 32" width="21.267" height="1.484" transform="translate(196.346 281.631)" fill="#535461"/>
      <rect id="Rectangle_33" data-name="Rectangle 33" width="21.267" height="1.484" transform="translate(302.185 281.631)" fill="#535461"/>
    </g>
    <g id="computer" transform="translate(929 461)">
      <path id="Path_1" data-name="Path 1" d="M496.219,165.183C477.195,90.375,411.46,36.375,334.3,34.209c-40.791-1.145-83.715,12.384-114.967,59.725-55.866,84.628,3.433,143.109,44.775,170.9a258.685,258.685,0,0,1,53.469,48.058c27.925,33.137,81.646,74.315,145.626,9.8C509.577,275.922,508.891,215.012,496.219,165.183Z" transform="translate(-141.25 -34.143)" fill="#f2f2f2"/>
      <path id="Path_2" data-name="Path 2" d="M1038.309,335.012c0,19.415-15.739,50.4-35.154,50.4S968,354.427,968,335.012a35.154,35.154,0,1,1,70.309,0Z" transform="translate(-585.96 -187.314)" fill="#ff6584"/>
      <path id="Path_3" data-name="Path 3" d="M1031.343,504.809c-4.418,1.521-5.476,7.545-3.956,11.964s4.738,8.083,6.357,12.466a37.372,37.372,0,0,1,1.584,6.794c.925,5.5,1.853,11.093,1.14,16.622-.676,5.245-2.8,10.191-5.172,14.919a139.568,139.568,0,0,1-16.655,25.706" transform="translate(-612.846 -305.459)" fill="none" stroke="#2f2e41" stroke-width="2"/>
      <path id="Path_4" data-name="Path 4" d="M1049.777,500.634a5.824,5.824,0,0,0-6.777,0v-6.777h6.777Z" transform="translate(-629.194 -299.146)" fill="#ff6584"/>
      <path id="Path_5" data-name="Path 5" d="M1043.042,501.48a7.454,7.454,0,0,0,6.789-.028" transform="translate(-629.218 -303.525)" fill="none" stroke="#2f2e41" stroke-width="2"/>
      <ellipse id="Ellipse_1" data-name="Ellipse 1" cx="7.412" cy="8.895" rx="7.412" ry="8.895" transform="translate(424.395 123.978)" fill="#fff" opacity="0.4"/>
      <path id="Path_6" data-name="Path 6" d="M66,322.012c0,19.415,15.739,50.4,35.154,50.4s35.154-30.987,35.154-50.4a35.154,35.154,0,0,0-70.309,0Z" transform="translate(-66 -179.821)" fill="#ff6584"/>
      <path id="Path_7" data-name="Path 7" d="M138.606,491.809c4.418,1.521,5.475,7.545,3.956,11.964s-4.738,8.083-6.357,12.466a37.359,37.359,0,0,0-1.584,6.794c-.925,5.5-1.853,11.093-1.14,16.622.676,5.245,2.8,10.191,5.172,14.919a139.564,139.564,0,0,0,16.655,25.706" transform="translate(-104.754 -297.965)" fill="none" stroke="#2f2e41" stroke-width="2"/>
      <path id="Path_8" data-name="Path 8" d="M141,487.634a5.824,5.824,0,0,1,6.777,0v-6.777H141Z" transform="translate(-109.234 -291.652)" fill="#ff6584"/>
      <path id="Path_9" data-name="Path 9" d="M147.718,488.48a7.454,7.454,0,0,1-6.789-.028" transform="translate(-109.193 -296.031)" fill="none" stroke="#2f2e41" stroke-width="2"/>
      <ellipse id="Ellipse_2" data-name="Ellipse 2" cx="7.412" cy="8.895" rx="7.412" ry="8.895" transform="translate(13.13 118.472)" fill="#fff" opacity="0.4"/>
      <path id="Path_10" data-name="Path 10" d="M517.147,677.587c0,20-94.056,55.485-210.08,55.485S108,661.162,108,641.162s83.044,19.483,199.067,19.483S517.147,657.587,517.147,677.587Z" transform="translate(-90.211 -380.801)" fill="#3f3d56"/>
      <path id="Path_11" data-name="Path 11" d="M517.147,677.587c0,20-94.056,55.485-210.08,55.485S108,661.162,108,641.162s83.044,19.483,199.067,19.483S517.147,657.587,517.147,677.587Z" transform="translate(-90.211 -380.801)" opacity="0.1"/>
      <path id="Path_12" data-name="Path 12" d="M517.147,672.973c0,20-94.056,36.213-210.08,36.213S108,656.759,108,636.759s83.044,0,199.067,0S517.147,652.972,517.147,672.973Z" transform="translate(-90.211 -376.398)" fill="#3f3d56"/>
      <path id="Path_13" data-name="Path 13" d="M480.795,599.061l-4.254,27.163s-20.945,11.127-6.218,11.454,84.106,0,84.106,0,13.418,0-7.854-11.781l-4.254-28.472Z" transform="translate(-296.048 -358.848)" fill="#2f2e41"/>
      <path id="Path_14" data-name="Path 14" d="M467.366,637.383a57.925,57.925,0,0,1,9.18-6.077l4.254-27.163,61.525.058,4.254,26.778a55.868,55.868,0,0,1,9.831,6.469c2.732-.623,5.718-2.94-9.831-11.552l-4.254-28.472L480.8,599.061l-4.254,27.163S458.947,635.575,467.366,637.383Z" transform="translate(-296.054 -358.848)" opacity="0.1"/>
      <rect id="Rectangle_1" data-name="Rectangle 1" width="277.19" height="193.084" rx="23.01" transform="translate(76.588 50.892)" fill="#2f2e41"/>
      <rect id="Rectangle_2" data-name="Rectangle 2" width="258.536" height="144.65" transform="translate(85.914 61.201)" fill="#3f3d56"/>
      <circle id="Ellipse_3" data-name="Ellipse 3" cx="1.636" cy="1.636" r="1.636" transform="translate(213.546 54.983)" fill="#f2f2f2"/>
      <path id="Path_15" data-name="Path 15" d="M524.014,547.2v16.926a9.745,9.745,0,0,1-9.747,9.746H256.57a9.745,9.745,0,0,1-9.746-9.747V547.2Z" transform="translate(-170.236 -329.897)" fill="#2f2e41"/>
      <path id="Path_16" data-name="Path 16" d="M439.18,684.009v3.273H263.113v-2.618l.242-.655,4.339-11.781H435.579Z" transform="translate(-151.672 -387.507)" fill="#2f2e41"/>
      <path id="Path_17" data-name="Path 17" d="M837.507,711.286c-.321,1.371-1.532,2.818-4.268,4.186-9.818,4.909-29.781-1.309-29.781-1.309s-15.381-2.618-15.381-9.491a12.255,12.255,0,0,1,1.348-.8c4.128-2.184,17.814-7.572,42.081.228a10.122,10.122,0,0,1,4.613,3.023A4.827,4.827,0,0,1,837.507,711.286Z" transform="translate(-482.243 -417.988)" fill="#2f2e41"/>
      <path id="Path_18" data-name="Path 18" d="M839.342,711.286c-12.017,4.6-22.728,4.948-33.721-2.687a24.14,24.14,0,0,0-14.36-4.729c4.128-2.184,17.814-7.572,42.081.228a10.121,10.121,0,0,1,4.613,3.023A4.827,4.827,0,0,1,839.342,711.286Z" transform="translate(-484.078 -417.988)" opacity="0.1"/>
      <ellipse id="Ellipse_4" data-name="Ellipse 4" cx="4.254" cy="1.309" rx="4.254" ry="1.309" transform="translate(335.942 287.993)" fill="#f2f2f2"/>
      <circle id="Ellipse_5" data-name="Ellipse 5" cx="6.218" cy="6.218" r="6.218" transform="translate(208.965 224.505)" fill="#f2f2f2"/>
      <path id="Path_19" data-name="Path 19" d="M439.18,700.044v3.273H263.113V700.7l.242-.655Z" transform="translate(-151.672 -403.542)" opacity="0.1"/>
      <path id="Path_20" data-name="Path 20" d="M914.343,338.809c-4.418,1.521-5.475,7.545-3.956,11.964s4.738,8.083,6.357,12.466a37.351,37.351,0,0,1,1.584,6.794c.925,5.5,1.853,11.093,1.14,16.622-.676,5.245-2.8,10.191-5.172,14.919a139.565,139.565,0,0,1-16.655,25.706" transform="translate(-545.401 -209.768)" fill="none" stroke="#2f2e41" stroke-width="2"/>
      <path id="Path_21" data-name="Path 21" d="M921.309,169.012c0,19.415-15.739,50.4-35.155,50.4S851,188.427,851,169.012a35.154,35.154,0,0,1,70.309,0Z" transform="translate(-518.515 -91.623)" fill="#1bb1dc"/>
      <path id="Path_22" data-name="Path 22" d="M932.777,334.634a5.824,5.824,0,0,0-6.777,0v-6.777h6.777Z" transform="translate(-561.749 -203.455)" fill="#1bb1dc"/>
      <path id="Path_23" data-name="Path 23" d="M926.042,335.48a7.455,7.455,0,0,0,6.789-.028" transform="translate(-561.773 -207.834)" fill="none" stroke="#2f2e41" stroke-width="2"/>
      <ellipse id="Ellipse_6" data-name="Ellipse 6" cx="7.412" cy="8.895" rx="7.412" ry="8.895" transform="translate(374.84 53.67)" fill="#fff" opacity="0.4"/>
    </g>
  </g>
</svg>
